<svg width="18" height="13" viewBox="0 0 18 13" fill="none" xmlns="http://www.w3.org/2000/svg">
<path d="M6.03897 1.75275C6.97115 1.33854 7.97991 1.12468 8.99997 1.125C11.2162 1.125 12.9817 2.11125 14.295 3.273C15.612 4.43775 16.4445 5.75325 16.7752 6.333C16.7828 6.34545 16.7869 6.35968 16.7872 6.37425C16.7869 6.3901 16.7825 6.40561 16.7745 6.41925C16.4372 7.00364 16.0535 7.55993 15.627 8.08275C15.5774 8.13966 15.5398 8.20595 15.5164 8.27769C15.4931 8.34942 15.4843 8.42513 15.4908 8.5003C15.4973 8.57547 15.5188 8.64858 15.5541 8.71526C15.5894 8.78195 15.6377 8.84085 15.6963 8.88846C15.7548 8.93607 15.8223 8.97142 15.8948 8.9924C15.9673 9.01338 16.0432 9.01957 16.1181 9.01059C16.1931 9.00162 16.2654 8.97766 16.3309 8.94015C16.3963 8.90264 16.4536 8.85234 16.4992 8.79225C16.9648 8.22192 17.3837 7.61495 17.7517 6.97725C17.8569 6.79454 17.9124 6.58743 17.9125 6.3766C17.9126 6.16577 17.8574 5.95859 17.7525 5.77575C17.3887 5.13825 16.485 3.708 15.0405 2.43075C13.593 1.1505 11.574 0 8.99997 0C7.72872 0 6.58872 0.2805 5.58597 0.72225C5.45015 0.7828 5.34384 0.894667 5.29028 1.03339C5.23671 1.17211 5.24026 1.32639 5.30013 1.46251C5.36001 1.59862 5.47135 1.70549 5.60981 1.75974C5.74826 1.81399 5.90256 1.81195 6.03897 1.75275ZM14.3745 10.8652C12.996 11.91 11.1997 12.75 8.99997 12.75C6.42597 12.75 4.40622 11.5995 2.95947 10.32C1.51497 9.042 0.61047 7.611 0.24747 6.9735C0.142701 6.79086 0.0876372 6.58395 0.0877688 6.3734C0.0879004 6.16285 0.143223 5.95601 0.24822 5.7735C0.919201 4.61034 1.7574 3.55204 2.73597 2.6325L0.98772 1.3965C0.925079 1.35484 0.871431 1.30103 0.829953 1.23826C0.788475 1.1755 0.760009 1.10505 0.74624 1.03109C0.732471 0.957124 0.733679 0.881151 0.749792 0.807664C0.765905 0.734177 0.796596 0.664669 0.840049 0.603254C0.883501 0.541838 0.938832 0.489764 1.00277 0.450112C1.0667 0.410459 1.13794 0.384035 1.21227 0.372403C1.2866 0.360771 1.3625 0.364167 1.4355 0.382391C1.50849 0.400615 1.57708 0.433296 1.63722 0.4785L17.0122 11.3535C17.0749 11.3952 17.1285 11.449 17.17 11.5117C17.2115 11.5745 17.2399 11.645 17.2537 11.7189C17.2675 11.7929 17.2663 11.8688 17.2501 11.9423C17.234 12.0158 17.2033 12.0853 17.1599 12.1467C17.1164 12.2082 17.0611 12.2602 16.9972 12.2999C16.9332 12.3395 16.862 12.366 16.7877 12.3776C16.7133 12.3892 16.6374 12.3858 16.5644 12.3676C16.4915 12.3494 16.4229 12.3167 16.3627 12.2715L14.3745 10.8652ZM3.67647 3.2985C2.37897 4.45425 1.55547 5.75325 1.22547 6.3315C1.21718 6.34477 1.21277 6.3601 1.21272 6.37575C1.21272 6.387 1.21497 6.40125 1.22472 6.417C1.55547 6.9975 2.38797 8.31225 3.70497 9.477C5.01747 10.6388 6.78372 11.625 8.99997 11.625C10.7505 11.625 12.2175 11.01 13.4055 10.1798L10.7685 8.3145C10.3262 8.71822 9.75929 8.95862 9.16165 8.99581C8.56402 9.033 7.97163 8.86474 7.48277 8.51896C6.99391 8.17317 6.63796 7.67064 6.47397 7.09474C6.30999 6.51884 6.34783 5.90419 6.58122 5.35275L3.67647 3.29925V3.2985Z" fill="#696969"/>
</svg>
