<svg width="12" height="12" viewBox="0 0 12 12" fill="none" xmlns="http://www.w3.org/2000/svg">
<path d="M11.8936 4.91871C11.9651 5.32141 12.0007 5.72943 12 6.13818C12 7.96362 11.3343 9.50707 10.176 10.5518H10.1775C9.16449 11.469 7.77199 12 6.12088 12C4.49752 12 2.94065 11.3679 1.79277 10.2427C0.644877 9.11751 0 7.59143 0 6.00018C0 4.40893 0.644877 2.88285 1.79277 1.75767C2.94065 0.632481 4.49752 0.000358491 6.12088 0.000358491C7.64019 -0.0162265 9.10728 0.543205 10.2158 1.56181L8.46824 3.27476C7.83641 2.68472 6.99344 2.36152 6.12088 2.37479C4.5241 2.37479 3.16756 3.43076 2.68401 4.85271C2.42807 5.59789 2.42807 6.40472 2.68401 7.14989H2.6863C3.17215 8.5696 4.52639 9.62557 6.12318 9.62557C6.94797 9.62557 7.65646 9.41858 8.20581 9.05259H8.20351C8.52255 8.84551 8.79546 8.57719 9.00573 8.26382C9.21601 7.95046 9.35929 7.59856 9.42692 7.22939H6.12088V4.91946L11.8936 4.91871Z" fill="black"/>
</svg>
