<svg width="56" height="56" viewBox="0 0 56 56" fill="none" xmlns="http://www.w3.org/2000/svg">
<path d="M55.6706 28C55.6706 12.7175 43.2824 0.329407 28 0.329407C12.7175 0.329407 0.329391 12.7175 0.329391 28C0.329391 43.2825 12.7175 55.6706 28 55.6706C43.2824 55.6706 55.6706 43.2825 55.6706 28ZM36.1351 14.292L23.6834 43.3461C23.4665 43.8525 23.0574 44.252 22.546 44.4567C22.0346 44.6614 21.4628 44.6546 20.9564 44.4377C20.4501 44.2209 20.0506 43.8117 19.8459 43.3003C19.6411 42.7889 19.648 42.2171 19.8648 41.7108L32.3166 12.6567C32.4238 12.4059 32.5793 12.1788 32.7743 11.9881C32.9693 11.7975 33.1999 11.6472 33.453 11.5457C33.7061 11.4442 33.9767 11.3935 34.2494 11.3966C34.522 11.3997 34.7914 11.4565 35.0421 11.5637C35.2929 11.6709 35.52 11.8264 35.7107 12.0214C35.9013 12.2164 36.0516 12.447 36.1531 12.7001C36.2546 12.9532 36.3053 13.2238 36.3022 13.4964C36.2991 13.7691 36.2423 14.0413 36.1351 14.292ZM19.0126 23.3126L13.8105 28L19.0126 32.6846C19.4081 33.0564 19.6422 33.5684 19.6647 34.1108C19.6872 34.6533 19.4962 35.1829 19.1328 35.5861C18.7694 35.9894 18.2624 36.2342 17.7206 36.268C17.1787 36.3019 16.6452 36.122 16.2344 35.7671L9.3168 29.5412C9.101 29.3467 8.92846 29.1089 8.81037 28.8434C8.69227 28.5779 8.63125 28.2906 8.63125 28C8.63125 27.7094 8.69227 27.4221 8.81037 27.1566C8.92846 26.8911 9.101 26.6533 9.3168 26.4587L16.2344 20.2329C16.6452 19.8779 17.1787 19.6981 17.7206 19.732C18.2624 19.7658 18.7694 20.0106 19.1328 20.4139C19.4962 20.8171 19.6872 21.3467 19.6647 21.8891C19.6422 22.4315 19.4081 22.9436 19.0126 23.3154M36.8324 20.385C37.0149 20.1823 37.2356 20.0175 37.4818 19.9001C37.728 19.7827 37.995 19.715 38.2674 19.7009C38.5398 19.6867 38.8124 19.7264 39.0694 19.8177C39.3265 19.909 39.563 20.0501 39.7655 20.2329L46.6832 26.4587C46.899 26.6533 47.0715 26.8911 47.1896 27.1566C47.3077 27.4221 47.3687 27.7094 47.3687 28C47.3687 28.2906 47.3077 28.5779 47.1896 28.8434C47.0715 29.1089 46.899 29.3467 46.6832 29.5412L39.7655 35.7671C39.3547 36.122 38.8212 36.3019 38.2794 36.268C37.7376 36.2342 37.2306 35.9894 36.8672 35.5861C36.5037 35.1829 36.3128 34.6533 36.3352 34.1108C36.3577 33.5684 36.5918 33.0564 36.9874 32.6846L42.1895 28L36.9874 23.3154C36.5787 22.9469 36.3331 22.4312 36.3046 21.8817C36.2761 21.3322 36.4641 20.7939 36.8324 20.385Z" fill="black"/>
</svg>
