<svg width="13" height="8" viewBox="0 0 13 8" fill="none" xmlns="http://www.w3.org/2000/svg">
<path d="M12.4776 7.99935H11.0542C10.5159 7.99935 10.3537 7.54771 9.38878 6.54749C8.54546 5.70558 8.1893 5.60091 7.97597 5.60091C7.68093 5.60091 7.60047 5.68491 7.60047 6.10554V7.4314C7.60047 7.79001 7.48819 8 6.58375 8C5.7063 7.93894 4.85542 7.66281 4.10118 7.19437C3.34694 6.72593 2.71092 6.07857 2.24552 5.30563C1.14047 3.88092 0.371576 2.20876 0 0.422155C0 0.201178 0.0810883 0.000876677 0.487777 0.000876677H1.90994C2.27546 0.000876677 2.40708 0.169518 2.55054 0.559136C3.24104 2.66424 4.41931 4.49538 4.89773 4.49538C5.08112 4.49538 5.16096 4.41138 5.16096 3.93776V1.76934C5.10045 0.780113 4.59334 0.696762 4.59334 0.338804C4.59976 0.244366 4.64146 0.156238 4.70959 0.09314C4.77773 0.0300417 4.86692 -0.00305621 4.95824 0.000876677H7.19378C7.49942 0.000876677 7.60047 0.158533 7.60047 0.537167V3.46415C7.60047 3.78011 7.73146 3.88478 7.82377 3.88478C8.00716 3.88478 8.14813 3.78011 8.48433 3.43249C9.20499 2.52208 9.79376 1.50777 10.2321 0.421509C10.277 0.291089 10.3618 0.179451 10.4736 0.103623C10.5854 0.0277944 10.7181 -0.00806209 10.8515 0.00152276H12.2743C12.7009 0.00152276 12.7914 0.2225 12.7009 0.537813C12.1834 1.7386 11.5431 2.87843 10.791 3.93776C10.6375 4.18006 10.5764 4.30606 10.791 4.59036C10.932 4.81133 11.431 5.24295 11.7659 5.65325C12.2537 6.15723 12.6585 6.74004 12.9648 7.37842C13.087 7.78936 12.8837 7.99935 12.4776 7.99935Z" fill="black"/>
</svg>
