<svg width="12" height="12" viewBox="0 0 12 12" fill="none" xmlns="http://www.w3.org/2000/svg">
<path d="M2.9308 0.192405C3.36886 0.3408 3.7856 0.545934 4.17038 0.802572C4.71381 0.663685 5.27258 0.593912 5.83347 0.594905C6.41272 0.594905 6.97155 0.667238 7.49538 0.801988C7.88001 0.545599 8.29655 0.340664 8.73438 0.192405C9.14097 0.054155 9.72022 -0.169845 10.0644 0.211072C10.2977 0.470072 10.356 0.904072 10.3975 1.23541C10.4441 1.60524 10.4552 2.08707 10.3327 2.5654C10.8011 3.17032 11.0835 3.89191 11.0835 4.67824C11.0835 5.8694 10.4383 6.90366 9.48338 7.61999C9.02382 7.96038 8.51412 8.22724 7.97255 8.41099C8.09738 8.69682 8.1668 9.01299 8.1668 9.3449V11.0949C8.1668 11.2496 8.10534 11.398 7.99595 11.5074C7.88655 11.6168 7.73818 11.6782 7.58347 11.6782H4.08347C3.92876 11.6782 3.78038 11.6168 3.67099 11.5074C3.56159 11.398 3.50013 11.2496 3.50013 11.0949V10.5168C2.94305 10.5851 2.4758 10.5244 2.07855 10.3558C1.66322 10.1797 1.37388 9.90665 1.1563 9.64532C0.9498 9.39799 0.724634 8.84032 0.399134 8.73182C0.326436 8.70761 0.259218 8.66933 0.201318 8.61914C0.143418 8.56896 0.0959693 8.50786 0.0616812 8.43934C-0.00756657 8.30095 -0.0190044 8.14072 0.0298838 7.99391C0.078772 7.84709 0.183982 7.7257 0.322368 7.65645C0.460754 7.5872 0.620981 7.57577 0.7678 7.62465C1.1563 7.75415 1.40947 8.03415 1.58272 8.25932C1.86272 8.62099 2.09022 9.09349 2.53355 9.28191C2.71613 9.35949 2.98388 9.41024 3.40272 9.35307L3.50013 9.33324C3.50125 9.01578 3.56736 8.70192 3.69438 8.41099C3.15281 8.22725 2.64311 7.96039 2.18355 7.61999C1.22863 6.90366 0.583467 5.86999 0.583467 4.67824C0.583467 3.89307 0.865217 3.17207 1.33247 2.56774C1.20997 2.08941 1.22047 1.60641 1.26713 1.23599L1.27005 1.21382C1.31263 0.874322 1.36222 0.474738 1.60022 0.211072C1.94438 -0.169845 2.52422 0.0547385 2.93022 0.192988L2.9308 0.192405Z" fill="black"/>
</svg>
