<svg width="18" height="18" viewBox="0 0 18 18" fill="none" xmlns="http://www.w3.org/2000/svg">
<path d="M11.625 9C11.625 9.34472 11.5571 9.68606 11.4252 10.0045C11.2933 10.323 11.0999 10.6124 10.8562 10.8562C10.6124 11.0999 10.323 11.2933 10.0045 11.4252C9.68606 11.5571 9.34472 11.625 9 11.625C8.65528 11.625 8.31394 11.5571 7.99546 11.4252C7.67698 11.2933 7.3876 11.0999 7.14384 10.8562C6.90009 10.6124 6.70673 10.323 6.57482 10.0045C6.4429 9.68606 6.375 9.34472 6.375 9C6.375 8.30381 6.65156 7.63613 7.14384 7.14384C7.63613 6.65156 8.30381 6.375 9 6.375C9.69619 6.375 10.3639 6.65156 10.8562 7.14384C11.3484 7.63613 11.625 8.30381 11.625 9Z" fill="#696969"/>
<path d="M9 2.625C11.574 2.625 13.593 3.7755 15.0405 5.05575C16.485 6.333 17.3895 7.76325 17.7525 8.40075C17.8575 8.58299 17.9128 8.78965 17.9128 9C17.9128 9.21035 17.8575 9.41701 17.7525 9.59925C17.3895 10.2367 16.485 11.667 15.0405 12.945C13.5938 14.2245 11.574 15.375 9 15.375C6.426 15.375 4.407 14.2245 2.9595 12.945C1.515 11.6685 0.610501 10.2375 0.247501 9.6C0.142457 9.41776 0.0871639 9.2111 0.0871639 9.00075C0.0871639 8.7904 0.142457 8.58374 0.247501 8.4015C0.610501 7.764 1.515 6.33375 2.9595 5.055C4.40625 3.7755 6.426 2.625 9 2.625ZM1.22475 8.95875C1.21707 8.9712 1.21268 8.98539 1.212 9C1.21275 9.015 1.2165 9.02925 1.22475 9.042C1.5555 9.6225 2.388 10.9373 3.705 12.102C5.01825 13.2638 6.78375 14.25 9 14.25C11.2163 14.25 12.9825 13.2638 14.295 12.102C15.612 10.9373 16.4445 9.6225 16.7753 9.042C16.7832 9.02939 16.7876 9.01489 16.788 9C16.7876 8.98511 16.7832 8.97061 16.7753 8.958C16.4445 8.37825 15.612 7.06275 14.295 5.898C12.9818 4.73625 11.2163 3.75 9 3.75C6.78375 3.75 5.0175 4.7355 3.705 5.89875C2.388 7.06275 1.5555 8.37825 1.22475 8.95875Z" fill="#696969"/>
</svg>
